<?xml version="1.0" encoding="UTF-8"?>
<svg id="Layer_1" data-name="Layer 1" xmlns="http://www.w3.org/2000/svg" viewBox="0 0 50 50">
  <defs>
    <style>
      .cls-1 {
        stroke-width: 4px;
      }

      .cls-1, .cls-2 {
        fill: none;
        stroke: #fff;
        stroke-linecap: round;
        stroke-linejoin: round;
      }

      .cls-2 {
        stroke-width: 3px;
      }
    </style>
  </defs>
  <line class="cls-1" x1="40.46" y1="9.98" x2="43.05" y2="8.28"/>
  <line class="cls-1" x1="35.58" y1="4.9" x2="36.59" y2="2.54"/>
  <line class="cls-1" x1="44.02" y1="16" x2="46.8" y2="16.02"/>
  <g>
    <path class="cls-1" d="M9.03,35.98s.02-.04.02-.05c.16-.39.29-.78.38-1.18.46-1.95.13-4.05-.92-5.79-.62-1.03-1.11-2.13-1.47-3.28-1.03-3.28-.95-6.92.5-10.33,3.18-7.49,11.72-11.04,19.25-8.1"/>
    <path class="cls-1" d="M27.59,7.58c7.35,3.36,10.74,11.98,7.57,19.47-1.45,3.41-4.01,6-7.08,7.54-1.07.54-2.21.95-3.38,1.22-2.39.55-4.42,2.22-5.39,4.47,0,.02-.02.04-.02.05l-3.86,7.67-4.26-1.81-.71-.3-4.26-1.81.57-1.63"/>
  </g>
  <line class="cls-1" x1="13.08" y1="40.49" x2="15.45" y2="41.49"/>
  <path class="cls-2" d="M22.64,13.97l1.7-1.52c.46-.41,1.18-.1,1.21.51l.15,3.79c.03.76.45,1.45,1.1,1.84l3.28,1.91c.53.31.46,1.09-.11,1.3l-3.56,1.32c-.71.26-1.24.87-1.41,1.62l-.8,3.71c-.13.6-.9.78-1.28.3l-2.35-2.98c-.47-.6-1.22-.91-1.97-.84l-3.78.38c-.61.06-1.01-.61-.67-1.12l2.11-3.16c.42-.63.49-1.44.19-2.14l-1.53-3.47c-.25-.56.27-1.15.86-.99l3.27.92"/>
</svg>