<?xml version="1.0" encoding="UTF-8"?>
<svg id="Layer_1" data-name="Layer 1" xmlns="http://www.w3.org/2000/svg" viewBox="0 0 50 50">
  <defs>
    <style>
      .cls-1, .cls-2 {
        stroke-width: 4px;
      }

      .cls-1, .cls-2, .cls-3 {
        fill: none;
        stroke: #333;
      }

      .cls-1, .cls-3 {
        stroke-linecap: round;
        stroke-linejoin: round;
      }

      .cls-2 {
        stroke-miterlimit: 10;
      }

      .cls-3 {
        stroke-width: 3px;
      }
    </style>
  </defs>
  <g>
    <path class="cls-1" d="M12.74,32.61c2.04-1.93,6.93-5.84,10.83-3.24,5.05,3.37,4.05,3.37,6.23,3.37,1.64,0,2.05,1.89,1.8,4.26"/>
    <path class="cls-1" d="M24.41,36.1s8.42,2.53,12.63-.84c4.21-3.37,5.05-1.68,5.89-.84s1.68,4.21-4.21,6.74-8.42,5.89-14.31,3.37c-5.28-2.26-4.48-3.17-6.68-2.73"/>
    <rect class="cls-2" x="8.15" y="30.03" width="6.74" height="17.93" rx="2.37" ry="2.37" transform="translate(-17.95 10.98) rotate(-30)"/>
  </g>
  <g>
    <polygon class="cls-3" points="33.66 27.26 23.37 20.52 22.31 6.69 33.66 12.36 33.66 27.26"/>
    <polygon class="cls-3" points="45.02 6.69 33.66 12.36 33.66 27.26 43.95 21.23 45.02 6.69"/>
    <polyline class="cls-3" points="22.31 6.69 33.66 2.43 45.02 6.69"/>
  </g>
</svg>