<?xml version="1.0" encoding="UTF-8"?>
<svg id="Layer_1" data-name="Layer 1" xmlns="http://www.w3.org/2000/svg" viewBox="0 0 50 50">
  <defs>
    <style>
      .cls-1 {
        stroke-width: 4px;
      }

      .cls-1, .cls-2 {
        fill: none;
        stroke: #333;
        stroke-linecap: round;
        stroke-linejoin: round;
      }

      .cls-2 {
        stroke-width: 3px;
      }
    </style>
  </defs>
  <g>
    <path class="cls-2" d="M32.53,17.81c-.24-1.97,1.36-3.67,3.34-3.55l4.91.29c1.73.1,3.01,1.56,2.99,3.21,0,.24-.03.48-.09.72"/>
    <line class="cls-2" x1="38.4" y1="13.89" x2="39.15" y2="8.17"/>
    <line class="cls-2" x1="35.57" y1="8.86" x2="36.44" y2="13.34"/>
    <line class="cls-2" x1="42.18" y1="9.44" x2="40.19" y2="13.54"/>
  </g>
  <g>
    <path class="cls-2" d="M27.31,17.46c-1.84-3.61-5.76-4.58-8.78-4.2-.82.1-1.58.4-2.26.85-.77-.27-1.58-.37-2.4-.27-2.68.34-5.79,1.87-7.08,4.98"/>
    <path class="cls-2" d="M16.21,14.29c-.35-2.8,1.63-5.35,4.43-5.7"/>
    <path class="cls-2" d="M14.35,7.15c1.96,2.22,1.64,5.71,1.64,5.71,0,0-3.5-.1-5.47-2.32s-1.64-5.71-1.64-5.71c0,0,3.5.1,5.47,2.32Z"/>
  </g>
  <path class="cls-1" d="M43.97,27.69l-2.49,16.12c-.2,1.31-1.33,2.28-2.66,2.28H11.18c-1.33,0-2.46-.97-2.66-2.28l-2.49-16.12"/>
  <path class="cls-1" d="M44.95,27.69H5.05c-.65,0-1.24-.37-1.53-.96l-.86-1.79c-.54-1.12.28-2.42,1.53-2.42h41.61c1.24,0,2.06,1.3,1.53,2.42l-.86,1.79c-.28.59-.87.96-1.53.96Z"/>
  <g>
    <line class="cls-2" x1="13.79" y1="32.58" x2="13.79" y2="40.63"/>
    <line class="cls-2" x1="25" y1="32.58" x2="25" y2="40.63"/>
    <line class="cls-2" x1="36.21" y1="32.58" x2="36.21" y2="40.63"/>
  </g>
</svg>