<?xml version="1.0" encoding="UTF-8"?>
<svg id="Layer_1" data-name="Layer 1" xmlns="http://www.w3.org/2000/svg" viewBox="0 0 50 50">
  <defs>
    <style>
      .cls-1 {
        fill: none;
        stroke: #333;
        stroke-linecap: round;
        stroke-linejoin: round;
        stroke-width: 4px;
      }
    </style>
  </defs>
  <path class="cls-1" d="M40.84,44.13h3.61c1.12,0,2.07-.89,2.08-2.01.04-3.9-3.21-9.04-6.49-10.72-.58-.29-.65-1.04-.17-1.47,1.09-.95,1.71-2.42,1.5-4.01-.26-1.94-1.83-3.55-3.77-3.84-1.53-.23-2.94.31-3.91,1.29"/>
  <path class="cls-1" d="M9,44h-3.61c-1.12,0-2.07-.89-2.08-2.01-.04-3.9,3.21-9.04,6.49-10.72.58-.29.65-1.04.17-1.47-1.09-.95-1.71-2.42-1.5-4.01.26-1.94,1.83-3.55,3.77-3.84,1.53-.23,2.94.31,3.91,1.29"/>
  <g>
    <circle class="cls-1" cx="24.93" cy="27.86" r="5.13"/>
    <path class="cls-1" d="M20.54,36.43c-4.07,1.12-6.57,4.16-6.57,9.05h0c0,1.31,1.06,2.37,2.37,2.37h17.17c1.31,0,2.37-1.06,2.37-2.37h0c0-4.89-2.5-7.93-6.57-9.05"/>
  </g>
  <path class="cls-1" d="M36.48,2.16H13.52c-2.41,0-4.36,1.95-4.36,4.36h0c0,2.41,1.95,4.36,4.36,4.36h1.88l-.09,5.54,7.18-5.54h13.99c2.41,0,4.36-1.95,4.36-4.36h0c0-2.41-1.95-4.36-4.36-4.36Z"/>
</svg>