<?xml version="1.0" encoding="UTF-8"?>
<svg id="Layer_1" data-name="Layer 1" xmlns="http://www.w3.org/2000/svg" viewBox="0 0 50 50">
  <defs>
    <style>
      .cls-1, .cls-2 {
        stroke-width: 4px;
      }

      .cls-1, .cls-2, .cls-3 {
        fill: none;
        stroke: #333;
      }

      .cls-1, .cls-3 {
        stroke-linecap: round;
        stroke-linejoin: round;
      }

      .cls-2 {
        stroke-miterlimit: 10;
      }

      .cls-3 {
        stroke-width: 3px;
      }
    </style>
  </defs>
  <path class="cls-1" d="M10.93,31.23c2.07-1.96,7.05-5.94,11.02-3.3,5.14,3.43,4.12,3.43,6.34,3.43,1.67,0,2.08,1.93,1.83,4.34"/>
  <path class="cls-1" d="M22.8,34.78s8.56,2.57,12.85-.86,5.14-1.71,6-.86,1.71,4.28-4.28,6.85c-6,2.57-8.56,6-14.56,3.43-5.37-2.3-4.55-3.23-6.79-2.78"/>
  <rect class="cls-2" x="6.25" y="28.6" width="6.85" height="18.24" rx="2.37" ry="2.37" transform="translate(-17.56 9.89) rotate(-30)"/>
  <circle class="cls-3" cx="32.44" cy="18.51" r="7.71"/>
  <circle class="cls-3" cx="18.95" cy="10.37" r="2.57"/>
  <circle class="cls-3" cx="44.21" cy="7.37" r="3.85"/>
</svg>