<?xml version="1.0" encoding="UTF-8"?>
<svg id="Layer_1" xmlns="http://www.w3.org/2000/svg" version="1.1" xmlns:xlink="http://www.w3.org/1999/xlink" viewBox="0 0 262 57">
  <!-- Generator: Adobe Illustrator 29.0.0, SVG Export Plug-In . SVG Version: 2.1.0 Build 186)  -->
  <defs>
    <style>
      .st0 {
        fill: url(#_무제_그라디언트_5);
      }

      .st0, .st1, .st2, .st3, .st4 {
        fill-rule: evenodd;
      }

      .st1 {
        fill: url(#_무제_그라디언트_4);
      }

      .st2 {
        fill: url(#_무제_그라디언트_2);
      }

      .st3 {
        fill: url(#_무제_그라디언트_3);
      }

      .st5 {
        fill: #333;
      }

      .st4 {
        fill: url(#_무제_그라디언트);
      }
    </style>
    <radialGradient id="_무제_그라디언트" data-name="무제 그라디언트" cx="194.9" cy="271.9" fx="194.9" fy="271.9" r="41.5" gradientTransform="translate(281.8 177.2) rotate(-97.4) scale(.8 -.9)" gradientUnits="userSpaceOnUse">
      <stop offset="0" stop-color="#fff"/>
      <stop offset=".5" stop-color="#24b2e7"/>
      <stop offset="1" stop-color="#3d4199"/>
    </radialGradient>
    <radialGradient id="_무제_그라디언트_2" data-name="무제 그라디언트 2" cx="270.9" cy="254.9" fx="270.9" fy="254.9" r="101" gradientTransform="translate(281.8 177.2) rotate(-97.4) scale(.8 -.9)" gradientUnits="userSpaceOnUse">
      <stop offset="0" stop-color="#fff"/>
      <stop offset=".3" stop-color="#e1e331"/>
      <stop offset=".8" stop-color="#399948"/>
    </radialGradient>
    <radialGradient id="_무제_그라디언트_3" data-name="무제 그라디언트 3" cx="171.1" cy="156.8" fx="171.1" fy="156.8" r="74.8" gradientTransform="translate(0 58) scale(1 -1)" gradientUnits="userSpaceOnUse">
      <stop offset="0" stop-color="#fff"/>
      <stop offset=".3" stop-color="#e1e331"/>
      <stop offset=".8" stop-color="#399948"/>
    </radialGradient>
    <radialGradient id="_무제_그라디언트_4" data-name="무제 그라디언트 4" cx="298.5" cy="239.8" fx="298.5" fy="239.8" r="152.3" gradientTransform="translate(281.8 177.2) rotate(-97.4) scale(.8 -.9)" gradientUnits="userSpaceOnUse">
      <stop offset="0" stop-color="#fff"/>
      <stop offset=".5" stop-color="#faaf3b"/>
      <stop offset="1" stop-color="#c3272e"/>
    </radialGradient>
    <radialGradient id="_무제_그라디언트_5" data-name="무제 그라디언트 5" cx="196.8" cy="192.4" fx="196.8" fy="192.4" r="91.2" gradientTransform="translate(0 58) scale(1 -1)" gradientUnits="userSpaceOnUse">
      <stop offset="0" stop-color="#fff"/>
      <stop offset=".5" stop-color="#24b2e7"/>
      <stop offset="1" stop-color="#3d4199"/>
    </radialGradient>
  </defs>
  <g>
    <path class="st4" d="M19.4,53.5c13.7,5.6,21.3-4.3,23.9-9.7-4-2.4-6.7-4.3-10.4-6.9-10.8,20.3-23.8,1.6-14.1-2.9C.1,27.7-.5,45.3,19.4,53.5Z"/>
    <g>
      <path class="st2" d="M36.1,30c3.2,1.9,5.1,5,8.8,7.7,7.4-23.8,17.5-25.6,22.4-15.7,4,8.2-1.5,19.1-18.3,14.7,25.1,19.6,51.8-17.4,21.2-34-11.5-4.8-29,6.8-34.1,27.3h0Z"/>
      <path class="st3" d="M36.1,30c3.2,1.9,7.2,4.2,10.9,6.9,8-20.1,15-24,19.8-16-8.8-14.9-23.4-8.5-30.7,9.1Z"/>
    </g>
    <path class="st1" d="M46,34.6c-13-7.4-21.5-15.6-29.3-15.4-19,.5-23.8,25.5,2.6,34.3-23.4-9.1-17-32.4,12.8-13,6.8,4.5,13.1,10.6,21.5,13.4,11.2,3.7,24.7.7,31.2-8.6,10.3-14.7-.3-36.5-14.5-42.6,26.1,11.8,6.3,49.1-24.2,31.9Z"/>
    <path class="st0" d="M23.8,55C.4,45.9.2,22.6,28.9,38.5c-11.2-9-18.4-12.2-25.4-12.8-6.3,8.1-1.3,27.2,20.3,29.3h0Z"/>
  </g>
  <g>
    <path class="st5" d="M108.1,25.9h-3.8c.4-2.2,0-3.5-.6-4.3-1,2.9-2.7,4.6-4.5,4.6s-1.8-.7-1.8-1.6.3-1.1.9-1.7c1.8-1.5,2.6-4.2,2.6-8.3v-2.9h-1.7c-1.3,0-1.8-.9-1.8-1.8s.5-1.8,1.8-1.8h7.1c1.3,0,1.8.9,1.8,1.8s-.5,1.8-1.8,1.8h-1.6v2.8c0,1.1,0,2.1-.2,3.1,1.9,1,3.8,3,3.5,8.3h0ZM112.5,9v18.2h-3.6v-9.5h-1.4c-1.2,0-1.9-.7-1.9-1.8s.7-1.8,1.9-1.8h1.4v-5c0-1.1.7-1.8,1.8-1.8s1.8.7,1.8,1.8ZM117.3,9v18.2h-3.7V9c0-1.1.7-1.8,1.9-1.8s1.8.7,1.8,1.8Z"/>
    <path class="st5" d="M118.1,18c0-1,.5-1.5,1.3-1.6,1.9-.3,3-1.6,3-3.6v-.3h-2.7c-1,0-1.6-.9-1.6-1.7s.5-1.7,1.6-1.7h2.6v-.2c0-1.3.7-1.9,2-1.9s2.1.6,2.1,1.9v.2h2.7c1.1,0,1.6,1,1.6,1.7s-.6,1.7-1.6,1.7h-2.8v.3c0,.4,0,.8,0,1.1,3.1.1,4.6,1.8,4.6,5.5h-3.9c.1-1.7-.7-2.5-1.8-2.5-1.3,1.7-3.3,2.7-5.2,2.7-1,0-1.8-.6-1.8-1.6h0ZM136.1,23.9c1.3,0,1.7.8,1.7,1.6s-.5,1.6-1.7,1.6h-13.5c-2.4,0-3-.8-3-3.1v-1.6c0-1.3,1-2,2.2-2s2.1.7,2.1,2v1c0,.3.1.4.4.4,0,0,11.7,0,11.7,0ZM131.9,12.4h1.1v-3.1c0-1.4,1-2.1,2.1-2.1s2.1.7,2.1,2.1v13h-4.3v-6.6h-1.1c-1.1,0-1.8-.6-1.8-1.6s.7-1.7,1.8-1.7h0Z"/>
    <path class="st5" d="M151.7,26h-4.1c.4-3.4-.1-5.8-1.7-7-.9,3.2-2.6,5.4-4.8,6.7-1.1.7-2.4.5-3-.2-.6-.7-.6-1.9.3-2.6,3.3-2.2,4.2-5.4,4.2-11.3v-1.7c0-1.4,1-2.1,2.1-2.1s2.1.8,2.1,2.1v1.6c0,1.2,0,2.4-.2,3.4,3.7,1.5,5.5,4.7,5.1,11h0ZM157.6,9.3v17.9h-4.3V9.3c0-1.4,1-2.1,2.1-2.1s2.1.7,2.1,2.1h0Z"/>
    <path class="st5" d="M176.7,15.1c1.3,0,1.8.8,1.8,1.7s-.5,1.7-1.8,1.7h-16.4c-1.2,0-1.8-.8-1.8-1.7s.5-1.7,1.8-1.7h6v-1h-4c-2.1,0-2.9-.9-2.9-2.6v-2c0-1.4,1-2.1,2.2-2.1s2.1.7,2.1,2.1v.9c0,.3.1.4.6.4h11.5c1.2,0,1.7.7,1.7,1.6s-.5,1.7-1.7,1.7h-5.3v1h6ZM173.7,19.6c2.9,0,4.2,1.6,4.2,3.8s-1.3,3.8-4.2,3.8h-10.4c-2.9,0-4.2-1.6-4.2-3.8s1.3-3.8,4.2-3.8h10.4ZM172.6,24.2c.7,0,1-.3,1-.8s-.3-.8-1-.8h-8c-.7,0-1,.3-1,.8s.3.8,1,.8h8Z"/>
    <path class="st5" d="M197.1,17.3c1.2,0,1.7.8,1.7,1.6s-.5,1.6-1.7,1.6h-16.5c-1.2,0-1.7-.7-1.7-1.6s.5-1.6,1.7-1.6h6.2v-.2c0-1.4,1-1.8,2.2-1.8s2.2.4,2.2,1.8v.2h6ZM186.7,11.4h-5.2c-1.3,0-1.8-.6-1.8-1.5s.5-1.5,1.8-1.5h5.1c.1-.9,1-1.6,2.2-1.6s2.1.7,2.3,1.6h5.1c1.3,0,1.8.6,1.8,1.5s-.5,1.5-1.8,1.5h-5.4c0,.2-.1.4-.2.7,3.6-.4,7,.6,8,4h-4.4c-1-1.4-3.3-1.9-5.9-1.5-1.7,1-4.1,1.6-7,1.5-1.2,0-2.1-.5-2.2-1.7,0-.9.6-1.6,1.7-1.6,3.1.3,5-.3,5.7-1.4h0ZM196.4,24c1.3,0,1.8.7,1.8,1.6s-.5,1.6-1.8,1.6h-13.4c-2.4,0-3-.8-3-3v-1.3c0-1.4,1-1.9,2.2-1.9s2.1.5,2.1,1.9v.5c0,.4.1.5.6.5h11.5,0Z"/>
    <path class="st5" d="M201.1,18.9c-1.1,0-1.9-.6-1.9-1.9s.5-1.4,1.3-1.7c2.1-.8,3.1-2.2,3.2-5.2v-.8c0-1.3,1.1-1.9,2.2-1.9,1.1,0,2,.7,2,1.9v.8c0,.5,0,1,0,1.4,3.2.3,5.1,2.6,4.9,6.9h-4.2c.1-2.1-.5-3.3-1.8-3.7-1.4,2.6-3.9,4-5.7,4h0ZM217.4,23.9c1.3,0,1.8.8,1.8,1.6s-.5,1.7-1.8,1.7h-13.4c-2.4,0-3-.8-3-3.1v-2.2c0-1.4,1-2,2.2-2s2.1.7,2.1,2v1.6c0,.4.1.5.5.5h11.6ZM218.6,22.3h-4.3v-13c0-1.4,1-2.1,2.1-2.1s2.1.7,2.1,2.1v13h0Z"/>
    <path class="st5" d="M221.1,18.6c-1,0-1.6-.5-1.6-1.4s.5-1.4,1.6-1.4h3.1v-.8h-.2c-2.5,0-3.6-1.4-3.6-3.2s0-.5.1-.7c-.6-.2-1-.6-1-1.3s.6-1.4,1.7-1.4h3c.2-1,.9-1.4,2.1-1.4s1.9.5,2.1,1.4h3c1.1,0,1.7.5,1.7,1.4s-.4,1.1-1,1.3c.1.2.1.5.1.7,0,1.8-1.2,3.2-3.6,3.2h-.4v.8h3.6c1.1,0,1.6.6,1.6,1.5s-.5,1.4-1.6,1.4h-10.7,0ZM237.8,24.9c.9,0,1.2.5,1.2,1.2s-.3,1.1-1.2,1.1h-14.1c-1.9,0-2.9-1-2.9-2.4v-.4c0-1.3,1-2.2,2.9-2.2h10.4v-.3c0-.2,0-.4-.3-.4h-11.6c-.8,0-1.2-.5-1.2-1.1s.4-1.1,1.2-1.1h13.9c1.7,0,2.3.5,2.3,2.1v2.8h-12.7c-.3,0-.4.1-.4.3h0c0,.2.1.4.4.4h12ZM225.1,10.9c-.6,0-1,.3-1,.9s.3.8,1,.8h2.4c.6,0,1-.3,1-.8s-.3-.9-1-.9h-2.4ZM239,11.1c1.3,0,1.7,1,1.7,1.9s-.4,1.9-1.7,1.9h-.7v3.9h-4.1v-9.5c0-1.3,1-2,2.1-2s2.1.7,2.1,2v1.9h.7Z"/>
    <path class="st5" d="M243.8,19c-2.2,0-3.5-1.4-3.5-3.4v-.4c0-2,1.3-3.2,3.3-3.2h3.3v-.8c0-.3-.1-.4-.5-.4h-4.6c-1,0-1.4-.8-1.4-1.5s.5-1.5,1.4-1.5h6.5c1.9,0,2.8,1,2.8,2.6v4.4h-5.8c-.4,0-.7.2-.7.6h0c0,.5.3.6.7.6h6.7c1,0,1.4.8,1.4,1.5s-.4,1.5-1.4,1.5h-8.2,0ZM256.2,19.9c2.7,0,3.1.7,3.1,3.3v4h-4.3v-3.5c0-.3-.2-.5-.5-.5h-11.5c-1.2,0-1.8-.6-1.8-1.6s.7-1.7,1.8-1.7h13.2ZM254.9,12.5v-.9h-1.5c-1,0-1.6-.6-1.6-1.5s.6-1.5,1.6-1.5h1.6c.3-.9,1.1-1.4,2-1.4s2.1.7,2.1,2.1v9.8h-4.3v-3.6h-1.5c-1,0-1.6-.6-1.6-1.5s.6-1.5,1.6-1.5h1.5,0Z"/>
    <path class="st5" d="M99.2,44.2c-1,0-1.6-.5-1.6-1.4s.5-1.4,1.6-1.4h16.8c1,0,1.6.5,1.6,1.4s-.5,1.4-1.6,1.4h-16.8ZM99.6,40.7c-1,0-1.5-.4-1.5-1.3s.5-1.3,1.5-1.3h1.8c0-1.3.9-1.9,2.2-1.9s2.2.6,2.2,1.8h0c0,.1,3.8.1,3.8.1h0c0-1.3.9-1.9,2.2-1.9s2.2.6,2.2,1.8h0c0,.1,1.8.1,1.8.1,1,0,1.5.5,1.5,1.3s-.5,1.3-1.5,1.3h-16ZM116.1,50.4c.9,0,1.2.5,1.2,1.2s-.3,1.2-1.2,1.2h-15.2c-1.8,0-2.7-1.1-2.7-2.5h0c0-1.4.8-2.4,2.7-2.4h11.4v-.4c0-.2,0-.3-.3-.3h-12.3c-.8,0-1.2-.5-1.2-1.2s.4-1.2,1.2-1.2h14.6c1.8,0,2.4.7,2.4,2v2.9h-13.6c-.2,0-.3.2-.3.3s.1.3.3.3h13ZM99.8,35.8c-1,0-1.5-.5-1.5-1.4s.5-1.4,1.5-1.4h15.5c1,0,1.5.5,1.5,1.4s-.5,1.4-1.5,1.4h-15.5Z"/>
    <path class="st5" d="M130.1,48.3c1.3,0,1.8.9,1.8,1.7s-.5,1.7-1.8,1.7h-8.3c-2.3,0-3.2-.8-3.2-3.2v-4.8c0-2.3.9-3.1,3.2-3.1h3v-3.2c0-.3,0-.5-.4-.5h-3.8c-1.3,0-1.8-.9-1.8-1.8s.5-1.8,1.8-1.8h5.2c2.6,0,3.3.7,3.3,2.8v7.9h-5.4c-.6,0-.8.2-.8.8v2.5c0,.6.2.8.8.8h6.5ZM137.3,34.8v17.9h-4.3v-8.7h-1.6c-1.2,0-1.9-.7-1.9-1.8s.7-1.8,1.9-1.8h1.6v-5.6c0-1.4,1-2.1,2.1-2.1s2.1.7,2.1,2.1h0Z"/>
    <path class="st5" d="M156.4,48.7c1.3,0,1.8.9,1.8,1.8s-.5,1.8-1.8,1.8h-16.2c-1.3,0-1.8-.9-1.8-1.8s.5-1.8,1.8-1.8h16.2ZM138.6,43.6c-.1-1,.4-1.8,1.5-2.1,2.8-.6,5.4-3,5.8-6.6.2-1.3,1.1-1.9,2.2-1.9s2.2.8,2.1,2.3c0,.7-.1,1.3-.3,2,3.6,0,7.2,2.6,7.7,8h-4.3c-.4-2.9-2.5-4.6-5-4.5-1.9,2.7-5,4.5-7.8,4.5s-1.9-.6-2-1.6h0Z"/>
    <path class="st5" d="M171.7,51.5h-4.1c.4-3.2,0-5.6-1.6-6.9-.9,3-2.5,5.2-4.6,6.5-1.1.8-2.5.6-3.1-.2-.6-.7-.6-1.9.3-2.6,3.2-2.3,4.1-5.4,4.1-11.3v-1.7c0-1.4,1-2.1,2.1-2.1s2.1.8,2.1,2.1v1.6c0,1.3,0,2.5-.2,3.6,3.7,1.5,5.3,4.8,4.9,10.8h0ZM178,40.2c1.3,0,1.7,1,1.7,1.8s-.4,1.8-1.7,1.8h-.8v8.8h-4.3v-17.9c0-1.4,1-2.1,2.1-2.1s2.1.7,2.1,2.1v5.3h.8,0Z"/>
    <path class="st5" d="M179.5,38.7v-1c0-3.1,2.4-4.7,5.9-4.7s5.3,1.2,5.8,3.7h2.8v-1.8c0-1.4,1-2.1,2.1-2.1s2.1.7,2.1,2.1v8.7h-4.3v-3.6h-2.9c-.6,2.3-2.8,3.4-5.7,3.4s-5.9-1.6-5.9-4.7h0ZM198.2,46.2v6.5h-14.9c-2.3,0-3-.8-3-3v-3.5c0-1.4.9-2,2.1-2s2,.5,2.1,1.7h9.4c0-1.2,1-1.7,2.1-1.7s2.1.6,2.1,2h0ZM183.6,38.7c0,1,.8,1.6,1.8,1.6s1.8-.6,1.8-1.6v-1c0-1-.8-1.6-1.8-1.6-1,0-1.8.6-1.8,1.6v1ZM194,49.9v-1.3h-9.4v.8c0,.4.1.5.5.5h8.9Z"/>
    <path class="st5" d="M217.4,45c1.3,0,1.8.9,1.8,1.7s-.5,1.7-1.8,1.7h-6v4.3h-4.3v-4.3h-6c-1.3,0-1.8-.8-1.8-1.7s.5-1.7,1.8-1.7h16.3ZM207,37.7h-5.2c-1.3,0-1.8-.9-1.8-1.8s.5-1.7,1.8-1.7h5.1c0-1.2.9-1.9,2.3-1.9s2.2.7,2.3,1.9h5.1c1.3,0,1.8.9,1.8,1.7s-.5,1.8-1.8,1.8h-5.3c0,.3-.1.7-.2,1,3.7-.2,7.2,1.3,7.7,5.7h-4.2c-.6-2-2.6-3-5.2-2.7-1.8,1.7-4.6,2.6-7.4,2.7-1.1,0-2.1-.6-2.2-1.6-.1-.9.5-1.8,1.5-1.9,3.1-.1,5.3-1.1,5.8-3.1h0Z"/>
    <path class="st5" d="M221.7,44.8c-1,0-2-.6-2-1.7s.4-1.5,1.3-1.6c2-.4,3.1-1.9,3.1-3.8v-.8h-2.7c-1,0-1.6-.9-1.6-1.7s.5-1.7,1.6-1.7h9.9c1.1,0,1.6,1,1.6,1.7s-.6,1.7-1.6,1.7h-3.1v.8c0,.3,0,.5,0,.8,3.3.2,4.9,2.2,4.8,6.2h-4c.1-1.7-.6-3-1.9-3.1-1.3,2.1-3.5,3.3-5.5,3.3h0ZM237.7,49.4c1.3,0,1.8.8,1.8,1.6s-.5,1.7-1.8,1.7h-13.4c-2.4,0-3-.8-3-3.1v-2.1c0-1.4,1-2,2.2-2s2.1.7,2.1,2v1.5c0,.4.1.5.5.5h11.6ZM238.9,47.8h-4.3v-13c0-1.4,1-2.1,2.1-2.1s2.1.7,2.1,2.1v13h0Z"/>
    <path class="st5" d="M243,44.1c-1.9,0-2.5-.7-2.5-2.4v-5.8c0-1.7.6-2.4,2.5-2.4h7.6c1.2,0,1.6.9,1.6,1.7s-.4,1.7-1.6,1.7h-5.5c-.3,0-.4.1-.4.5v3.1c0,.3.1.5.4.5h6.4c1.2,0,1.6.9,1.6,1.6s-.3,1.6-1.6,1.6h-8.5ZM257.6,49.4c1.3,0,1.8.8,1.8,1.6s-.5,1.7-1.8,1.7h-13c-2.4,0-3-.8-3-3.1v-2.2c0-1.4,1-2,2.2-2s2.1.7,2.1,2v1.6c0,.4.1.5.5.5h11.2ZM259.3,38.1c1.3,0,1.7,1,1.7,1.8s-.4,1.8-1.7,1.8h-.7v6.1h-4.3v-13c0-1.4,1-2.1,2.1-2.1s2.1.7,2.1,2.1v3.2h.7Z"/>
  </g>
</svg>