<?xml version="1.0" encoding="UTF-8"?>
<svg id="Layer_1" data-name="Layer 1" xmlns="http://www.w3.org/2000/svg" xmlns:xlink="http://www.w3.org/1999/xlink" viewBox="0 0 90.5 57">
  <defs>
    <style>
      .cls-1 {
        fill: url(#New_Gradient_Swatch_1);
      }

      .cls-1, .cls-2, .cls-3, .cls-4, .cls-5 {
        fill-rule: evenodd;
      }

      .cls-2 {
        fill: url(#New_Gradient_Swatch_5);
      }

      .cls-3 {
        fill: url(#New_Gradient_Swatch_1-2);
      }

      .cls-4 {
        fill: url(#New_Gradient_Swatch_5-2);
      }

      .cls-5 {
        fill: url(#New_Gradient_Swatch_8);
      }
    </style>
    <radialGradient id="New_Gradient_Swatch_1" data-name="New Gradient Swatch 1" cx="-201.37" cy="199.7" fx="-201.37" fy="199.7" r="41.51" gradientTransform="translate(-188.76 -69.34) rotate(-97.41) scale(.77 .92)" gradientUnits="userSpaceOnUse">
      <stop offset="0" stop-color="#fff"/>
      <stop offset=".5" stop-color="#24b2e7"/>
      <stop offset="1" stop-color="#3d4199"/>
    </radialGradient>
    <radialGradient id="New_Gradient_Swatch_5" data-name="New Gradient Swatch 5" cx="-125.32" cy="216.73" fx="-125.32" fy="216.73" r="101.02" gradientTransform="translate(-188.76 -69.34) rotate(-97.41) scale(.77 .92)" gradientUnits="userSpaceOnUse">
      <stop offset="0" stop-color="#fff"/>
      <stop offset=".28" stop-color="#e1e331"/>
      <stop offset=".8" stop-color="#399948"/>
    </radialGradient>
    <radialGradient id="New_Gradient_Swatch_5-2" data-name="New Gradient Swatch 5" cx="-157.57" cy="203.56" fx="-157.57" fy="203.56" r="74.83" xlink:href="#New_Gradient_Swatch_5"/>
    <radialGradient id="New_Gradient_Swatch_8" data-name="New Gradient Swatch 8" cx="-97.69" cy="231.79" fx="-97.69" fy="231.79" r="152.31" gradientTransform="translate(-188.76 -69.34) rotate(-97.41) scale(.77 .92)" gradientUnits="userSpaceOnUse">
      <stop offset="0" stop-color="#fff"/>
      <stop offset=".5" stop-color="#faaf3b"/>
      <stop offset="1" stop-color="#c3272e"/>
    </radialGradient>
    <radialGradient id="New_Gradient_Swatch_1-2" data-name="New Gradient Swatch 1" cx="-131.93" cy="167.91" fx="-131.93" fy="167.91" r="91.21" xlink:href="#New_Gradient_Swatch_1"/>
  </defs>
  <path class="cls-1" d="M19.88,53.49c13.72,5.62,21.32-4.35,23.89-9.7-4.04-2.39-6.74-4.29-10.44-6.94-10.83,20.34-23.81,1.6-14.07-2.9C.64,27.68,0,45.35,19.88,53.49Z"/>
  <g>
    <path class="cls-2" d="M36.6,29.98c3.22,1.87,5.13,5.03,8.85,7.7,7.42-23.84,17.54-25.61,22.38-15.7,4,8.17-1.5,19.13-18.34,14.67,25.14,19.56,51.84-17.37,21.24-33.99-11.47-4.75-29.05,6.8-34.14,27.32Z"/>
    <path class="cls-4" d="M36.6,29.98c3.22,1.87,7.17,4.2,10.9,6.87,7.99-20.13,15.03-23.96,19.75-15.97-8.78-14.86-23.39-8.52-30.65,9.1Z"/>
  </g>
  <path class="cls-5" d="M46.54,34.56c-13.05-7.35-21.52-15.58-29.29-15.39-18.96.47-23.77,25.49,2.62,34.32C-3.57,44.4,2.91,21.05,32.64,40.52c6.83,4.47,13.08,10.59,21.49,13.35,11.2,3.68,24.68.71,31.15-8.57,10.27-14.73-.34-36.46-14.54-42.64,26.06,11.78,6.27,49.07-24.2,31.9Z"/>
  <path class="cls-3" d="M24.33,55C.89,45.91.73,22.61,29.39,38.5c-11.19-8.96-18.38-12.19-25.35-12.78-6.3,8.06-1.33,27.19,20.29,29.29Z"/>
</svg>