<?xml version="1.0" encoding="UTF-8"?>
<svg id="Layer_1" data-name="Layer 1" xmlns="http://www.w3.org/2000/svg" xmlns:xlink="http://www.w3.org/1999/xlink" viewBox="0 0 262 57">
  <defs>
    <style>
      .cls-1 {
        fill: url(#New_Gradient_Swatch_1);
      }

      .cls-1, .cls-2, .cls-3, .cls-4, .cls-5 {
        fill-rule: evenodd;
      }

      .cls-6 {
        fill: #fff;
      }

      .cls-2 {
        fill: url(#New_Gradient_Swatch_5);
      }

      .cls-3 {
        fill: url(#New_Gradient_Swatch_1-2);
      }

      .cls-4 {
        fill: url(#New_Gradient_Swatch_5-2);
      }

      .cls-5 {
        fill: url(#New_Gradient_Swatch_8);
      }
    </style>
    <radialGradient id="New_Gradient_Swatch_1" data-name="New Gradient Swatch 1" cx="127.34" cy="-102.64" fx="127.34" fy="-102.64" r="41.51" gradientTransform="translate(120.72 145.77) rotate(-97.41) scale(.77 .92)" gradientUnits="userSpaceOnUse">
      <stop offset="0" stop-color="#fff"/>
      <stop offset=".5" stop-color="#24b2e7"/>
      <stop offset="1" stop-color="#3d4199"/>
    </radialGradient>
    <radialGradient id="New_Gradient_Swatch_5" data-name="New Gradient Swatch 5" cx="203.38" cy="-85.61" fx="203.38" fy="-85.61" r="101.02" gradientTransform="translate(120.72 145.77) rotate(-97.41) scale(.77 .92)" gradientUnits="userSpaceOnUse">
      <stop offset="0" stop-color="#fff"/>
      <stop offset=".28" stop-color="#e1e331"/>
      <stop offset=".8" stop-color="#399948"/>
    </radialGradient>
    <radialGradient id="New_Gradient_Swatch_5-2" data-name="New Gradient Swatch 5" cx="171.13" cy="-98.78" fx="171.13" fy="-98.78" r="74.83" xlink:href="#New_Gradient_Swatch_5"/>
    <radialGradient id="New_Gradient_Swatch_8" data-name="New Gradient Swatch 8" cx="231.01" cy="-70.54" fx="231.01" fy="-70.54" r="152.31" gradientTransform="translate(120.72 145.77) rotate(-97.41) scale(.77 .92)" gradientUnits="userSpaceOnUse">
      <stop offset="0" stop-color="#fff"/>
      <stop offset=".5" stop-color="#faaf3b"/>
      <stop offset="1" stop-color="#c3272e"/>
    </radialGradient>
    <radialGradient id="New_Gradient_Swatch_1-2" data-name="New Gradient Swatch 1" cx="196.77" cy="-134.43" fx="196.77" fy="-134.43" r="91.21" xlink:href="#New_Gradient_Swatch_1"/>
  </defs>
  <g>
    <path class="cls-1" d="M19.38,53.49c13.72,5.62,21.32-4.35,23.89-9.7-4.04-2.39-6.74-4.29-10.44-6.94-10.83,20.34-23.81,1.6-14.07-2.9C.14,27.68-.49,45.35,19.38,53.49Z"/>
    <g>
      <path class="cls-2" d="M36.1,29.98c3.22,1.87,5.13,5.03,8.85,7.7,7.42-23.84,17.54-25.61,22.38-15.7,4,8.17-1.5,19.13-18.34,14.67,25.14,19.56,51.84-17.37,21.24-33.99-11.47-4.75-29.05,6.8-34.14,27.32Z"/>
      <path class="cls-4" d="M36.1,29.98c3.22,1.87,7.17,4.2,10.9,6.87,7.99-20.13,15.03-23.96,19.75-15.97-8.78-14.86-23.39-8.52-30.65,9.1Z"/>
    </g>
    <path class="cls-5" d="M46.04,34.56c-13.05-7.35-21.52-15.58-29.29-15.39-18.96.47-23.77,25.49,2.62,34.32-23.44-9.09-16.97-32.44,12.77-12.97,6.83,4.47,13.08,10.59,21.49,13.35,11.2,3.68,24.68.71,31.15-8.57,10.27-14.73-.34-36.46-14.54-42.64,26.06,11.78,6.27,49.07-24.2,31.9Z"/>
    <path class="cls-3" d="M23.83,55C.39,45.91.23,22.61,28.89,38.5c-11.19-8.96-18.38-12.19-25.35-12.78-6.3,8.06-1.33,27.19,20.29,29.29Z"/>
  </g>
  <g>
    <path class="cls-6" d="M108.05,25.9h-3.79c.38-2.17.06-3.51-.64-4.32-1.02,2.89-2.68,4.62-4.47,4.62-1,0-1.81-.66-1.81-1.64,0-.57.28-1.13.94-1.68,1.83-1.55,2.62-4.19,2.62-8.34v-2.89h-1.66c-1.28,0-1.81-.89-1.81-1.77s.51-1.79,1.81-1.79h7.08c1.3,0,1.77.94,1.77,1.79s-.49,1.77-1.77,1.77h-1.6v2.83c0,1.08-.06,2.13-.19,3.08,1.94,1,3.83,3,3.51,8.34ZM112.47,8.99v18.19h-3.62v-9.51h-1.38c-1.17,0-1.89-.72-1.89-1.81s.7-1.83,1.89-1.83h1.38v-5.04c0-1.06.68-1.79,1.81-1.79s1.81.72,1.81,1.79ZM117.26,9.03v18.15h-3.72V9.03c0-1.11.74-1.83,1.87-1.83s1.85.72,1.85,1.83Z"/>
    <path class="cls-6" d="M118.1,18.05c0-.98.51-1.51,1.34-1.64,1.87-.34,3.02-1.6,3.02-3.55v-.26h-2.7c-1,0-1.55-.89-1.55-1.66s.47-1.72,1.55-1.72h2.64v-.17c0-1.28.7-1.87,2.02-1.87s2.06.62,2.06,1.87v.17h2.7c1.08,0,1.55.96,1.55,1.72s-.55,1.66-1.55,1.66h-2.77v.26c0,.38-.02.77-.09,1.11,3.13.13,4.64,1.79,4.6,5.51h-3.94c.13-1.66-.68-2.55-1.81-2.55-1.26,1.74-3.28,2.66-5.23,2.7-1.04.02-1.85-.62-1.85-1.57ZM136.09,23.93c1.26,0,1.74.77,1.74,1.62s-.51,1.64-1.74,1.64h-13.47c-2.38,0-3.02-.83-3.02-3.11v-1.57c0-1.3,1-1.96,2.19-1.96s2.13.68,2.13,1.96v1.02c0,.32.11.4.43.4h11.74ZM131.92,12.37h1.08v-3.06c0-1.38,1-2.11,2.13-2.11s2.13.72,2.13,2.11v12.98h-4.26v-6.6h-1.08c-1.06,0-1.77-.64-1.77-1.64s.68-1.68,1.77-1.68Z"/>
    <path class="cls-6" d="M151.71,25.97h-4.13c.43-3.36-.11-5.77-1.7-7.04-.94,3.17-2.57,5.38-4.83,6.74-1.11.68-2.45.55-3.02-.19-.57-.68-.64-1.91.32-2.57,3.26-2.21,4.21-5.4,4.21-11.34v-1.66c0-1.36,1.02-2.06,2.13-2.06s2.11.77,2.11,2.06v1.64c0,1.23-.06,2.38-.17,3.45,3.72,1.49,5.47,4.74,5.08,10.98ZM157.59,9.31v17.87h-4.26V9.31c0-1.38,1-2.11,2.13-2.11s2.13.72,2.13,2.11Z"/>
    <path class="cls-6" d="M176.74,15.07c1.26,0,1.77.83,1.77,1.7s-.53,1.68-1.77,1.68h-16.38c-1.23,0-1.77-.79-1.77-1.68s.51-1.7,1.77-1.7h6.02v-1.02h-3.98c-2.15,0-2.87-.89-2.87-2.57v-1.98c0-1.43,1.04-2.06,2.19-2.06s2.15.66,2.15,2.06v.85c0,.32.13.43.62.43h11.53c1.23,0,1.7.74,1.7,1.6s-.49,1.68-1.7,1.68h-5.3v1.02h6.02ZM173.74,19.59c2.89,0,4.17,1.6,4.17,3.83s-1.28,3.83-4.17,3.83h-10.38c-2.89,0-4.17-1.6-4.17-3.83s1.28-3.83,4.17-3.83h10.38ZM172.57,24.24c.7,0,1.02-.34,1.02-.83s-.32-.83-1.02-.83h-8.04c-.7,0-1.02.34-1.02.83s.32.83,1.02.83h8.04Z"/>
    <path class="cls-6" d="M197.1,17.31c1.21,0,1.72.77,1.72,1.64s-.53,1.64-1.72,1.64h-16.47c-1.19,0-1.72-.74-1.72-1.64s.51-1.64,1.72-1.64h6.17v-.17c0-1.38,1.04-1.81,2.17-1.81s2.17.45,2.17,1.81v.17h5.96ZM186.74,11.39h-5.23c-1.28,0-1.79-.6-1.79-1.47s.49-1.47,1.79-1.47h5.13c.11-.94.98-1.6,2.25-1.6s2.13.66,2.26,1.6h5.08c1.3,0,1.79.62,1.79,1.47s-.51,1.47-1.79,1.47h-5.36c-.04.21-.11.45-.17.66,3.6-.38,7,.57,7.98,4h-4.36c-1.04-1.43-3.26-1.87-5.85-1.49-1.68,1.04-4.11,1.6-6.96,1.49-1.17-.02-2.13-.49-2.17-1.66-.04-.85.6-1.64,1.68-1.55,3.11.28,5.04-.3,5.72-1.45ZM196.38,23.95c1.3,0,1.79.74,1.79,1.6,0,.89-.51,1.64-1.79,1.64h-13.36c-2.4,0-3.04-.79-3.04-2.98v-1.28c0-1.38,1.02-1.91,2.21-1.91s2.15.55,2.15,1.91v.53c0,.43.11.49.57.49h11.47Z"/>
    <path class="cls-6" d="M201.06,18.9c-1.11,0-1.89-.62-1.89-1.85,0-.81.47-1.4,1.28-1.7,2.06-.83,3.15-2.23,3.19-5.17l.02-.79c.04-1.26,1.04-1.89,2.21-1.87,1.13.02,2.04.72,2.04,1.94v.77c0,.51-.04.98-.08,1.45,3.17.3,5.08,2.57,4.94,6.94h-4.17c.15-2.06-.49-3.3-1.83-3.66-1.45,2.62-3.94,3.96-5.7,3.96ZM217.36,23.9c1.28,0,1.77.77,1.77,1.62s-.51,1.66-1.77,1.66h-13.45c-2.38,0-3.02-.83-3.02-3.11v-2.23c0-1.38,1-2.04,2.19-2.04s2.13.68,2.13,2.04v1.57c0,.4.11.49.51.49h11.64ZM218.55,22.29h-4.26v-12.98c0-1.38,1-2.11,2.13-2.11s2.13.72,2.13,2.11v12.98Z"/>
    <path class="cls-6" d="M221.13,18.63c-1.04,0-1.57-.51-1.57-1.4s.51-1.45,1.57-1.45h3.08v-.77h-.19c-2.47,0-3.64-1.43-3.64-3.21,0-.26.04-.49.15-.72-.62-.19-.98-.62-.98-1.3,0-.91.62-1.4,1.68-1.4h3.02c.17-.96.94-1.43,2.09-1.43s1.91.47,2.08,1.43h3c1.06,0,1.68.49,1.68,1.4,0,.68-.36,1.11-.98,1.3.11.23.15.47.15.72,0,1.79-1.17,3.21-3.64,3.21h-.4v.77h3.64c1.06,0,1.57.57,1.57,1.45s-.53,1.4-1.57,1.4h-10.74ZM237.81,24.9c.85,0,1.21.53,1.21,1.17,0,.6-.34,1.11-1.21,1.11h-14.06c-1.94,0-2.89-.96-2.89-2.36v-.4c0-1.26.96-2.19,2.89-2.19h10.4v-.32c0-.21-.06-.36-.34-.36h-11.55c-.83,0-1.17-.49-1.17-1.13,0-.6.36-1.11,1.17-1.11h13.89c1.74,0,2.32.55,2.32,2.11v2.81h-12.66c-.28,0-.4.15-.4.32v.04c0,.17.13.32.4.32h12ZM225.13,10.91c-.64,0-.98.32-.98.85,0,.49.34.83.98.83h2.4c.64,0,.98-.34.98-.83,0-.53-.34-.85-.98-.85h-2.4ZM239,11.14c1.3,0,1.68,1,1.68,1.85s-.4,1.85-1.68,1.85h-.66v3.94h-4.15v-9.53c0-1.32.96-2.04,2.08-2.04s2.06.72,2.06,2.04v1.89h.66Z"/>
    <path class="cls-6" d="M243.83,18.97c-2.19,0-3.49-1.43-3.49-3.4v-.36c0-2,1.28-3.23,3.28-3.23h3.26v-.81c0-.32-.13-.4-.49-.4h-4.6c-.98,0-1.43-.79-1.43-1.51,0-.77.47-1.53,1.43-1.53h6.53c1.91,0,2.81,1,2.81,2.6v4.43h-5.81c-.36,0-.66.19-.66.6v.06c0,.4.3.55.66.55h6.74c.96,0,1.4.79,1.4,1.53s-.4,1.49-1.4,1.49h-8.23ZM256.17,19.86c2.66,0,3.15.72,3.15,3.28v4.04h-4.3v-3.51c0-.32-.17-.51-.51-.51h-11.53c-1.17,0-1.83-.64-1.83-1.64s.66-1.66,1.83-1.66h13.19ZM254.94,12.54v-.94h-1.53c-.98,0-1.64-.55-1.64-1.49s.64-1.51,1.64-1.51h1.64c.28-.91,1.11-1.4,2.02-1.4,1.13,0,2.13.72,2.13,2.11v9.79h-4.26v-3.55h-1.53c-.98,0-1.64-.55-1.64-1.49s.64-1.51,1.64-1.51h1.53Z"/>
    <path class="cls-6" d="M99.18,44.21c-1.02,0-1.55-.47-1.55-1.36s.51-1.38,1.55-1.38h16.81c1.04,0,1.55.51,1.55,1.38s-.53,1.36-1.55,1.36h-16.81ZM99.58,40.69c-.96,0-1.47-.43-1.47-1.3s.49-1.32,1.47-1.32h1.77v-.13c0-1.19.89-1.77,2.19-1.77s2.15.6,2.15,1.77v.13h3.79v-.13c0-1.19.89-1.77,2.19-1.77s2.15.6,2.15,1.77v.13h1.77c.98,0,1.47.47,1.47,1.32s-.51,1.3-1.47,1.3h-16ZM116.07,50.4c.87,0,1.19.55,1.19,1.17s-.3,1.15-1.19,1.15h-15.17c-1.83,0-2.68-1.11-2.68-2.49v-.06c0-1.38.83-2.38,2.68-2.38h11.38v-.38c0-.19-.09-.28-.32-.28h-12.32c-.79,0-1.21-.53-1.21-1.15s.36-1.15,1.21-1.15h14.64c1.81,0,2.38.68,2.38,1.98v2.94h-13.55c-.21,0-.32.17-.32.34,0,.15.11.32.32.32h12.96ZM99.84,35.78c-.96,0-1.47-.51-1.47-1.38s.49-1.38,1.47-1.38h15.49c.98,0,1.47.53,1.47,1.38s-.51,1.38-1.47,1.38h-15.49Z"/>
    <path class="cls-6" d="M130.05,48.33c1.3,0,1.81.89,1.81,1.74s-.53,1.74-1.81,1.74h-8.3c-2.32,0-3.23-.85-3.23-3.17v-4.77c0-2.32.91-3.13,3.23-3.13h2.98v-3.19c0-.28-.08-.49-.45-.49h-3.85c-1.28,0-1.81-.89-1.81-1.77s.51-1.79,1.81-1.79h5.19c2.6,0,3.28.72,3.28,2.81v7.89h-5.36c-.62,0-.85.17-.85.81v2.49c0,.64.23.81.85.81h6.51ZM137.26,34.84v17.87h-4.26v-8.66h-1.6c-1.17,0-1.89-.72-1.89-1.81s.7-1.83,1.89-1.83h1.6v-5.57c0-1.38,1-2.11,2.13-2.11s2.13.72,2.13,2.11Z"/>
    <path class="cls-6" d="M156.35,48.69c1.32,0,1.83.94,1.83,1.81s-.53,1.79-1.83,1.79h-16.25c-1.3,0-1.83-.89-1.83-1.79s.51-1.81,1.83-1.81h16.25ZM138.61,43.61c-.11-1.02.45-1.85,1.53-2.08,2.81-.62,5.38-3,5.83-6.57.17-1.34,1.11-1.91,2.25-1.91,1.28,0,2.19.85,2.15,2.26-.02.66-.13,1.32-.28,1.96,3.57.09,7.25,2.57,7.66,8h-4.32c-.38-2.87-2.47-4.62-5-4.55-1.94,2.68-5,4.55-7.81,4.55-1.04,0-1.91-.6-2.02-1.64Z"/>
    <path class="cls-6" d="M171.69,51.5h-4.08c.38-3.21-.06-5.57-1.6-6.87-.91,3.02-2.47,5.17-4.6,6.53-1.11.77-2.49.6-3.06-.15-.57-.66-.62-1.89.32-2.57,3.19-2.28,4.06-5.4,4.06-11.34v-1.66c0-1.36,1-2.06,2.13-2.06s2.09.77,2.09,2.06v1.64c0,1.3-.06,2.51-.19,3.64,3.7,1.49,5.32,4.77,4.94,10.79ZM178.03,40.18c1.3,0,1.68,1,1.68,1.85s-.4,1.85-1.68,1.85h-.77v8.83h-4.26v-17.87c0-1.38,1-2.11,2.13-2.11s2.13.72,2.13,2.11v5.34h.77Z"/>
    <path class="cls-6" d="M179.46,38.7v-1.04c0-3.06,2.45-4.68,5.89-4.68,3.04,0,5.3,1.23,5.79,3.66h2.83v-1.79c0-1.38,1-2.11,2.13-2.11s2.13.72,2.13,2.11v8.72h-4.26v-3.62h-2.87c-.6,2.26-2.79,3.42-5.72,3.42-3.45,0-5.91-1.6-5.91-4.68ZM198.25,46.18v6.53h-14.91c-2.34,0-2.98-.83-2.98-3v-3.53c0-1.4.91-2,2.15-2,1.15,0,2,.53,2.11,1.74h9.4c.08-1.21.98-1.74,2.13-1.74,1.23,0,2.11.62,2.11,2ZM183.55,38.7c0,.98.79,1.57,1.81,1.57s1.81-.6,1.81-1.57v-1.04c0-.98-.81-1.6-1.81-1.57-1.02.02-1.81.62-1.81,1.57v1.04ZM193.99,49.93v-1.34h-9.38v.85c0,.43.11.49.53.49h8.85Z"/>
    <path class="cls-6" d="M217.36,45.01c1.28,0,1.79.87,1.79,1.74s-.53,1.74-1.79,1.74h-6v4.32h-4.34v-4.32h-6c-1.26,0-1.79-.85-1.79-1.74s.51-1.74,1.79-1.74h16.34ZM207,37.74h-5.17c-1.28,0-1.79-.89-1.79-1.77s.49-1.74,1.79-1.74h5.08c.06-1.19.94-1.89,2.28-1.89s2.19.72,2.28,1.89h5.08c1.3,0,1.79.89,1.79,1.74s-.51,1.77-1.79,1.77h-5.28c-.04.34-.11.66-.19.96,3.7-.21,7.17,1.32,7.68,5.66h-4.23c-.55-2.02-2.62-2.96-5.25-2.7-1.79,1.7-4.57,2.62-7.38,2.7-1.13.04-2.13-.57-2.23-1.62-.11-.91.47-1.81,1.51-1.87,3.13-.13,5.34-1.09,5.83-3.13Z"/>
    <path class="cls-6" d="M221.66,44.82c-1.04,0-1.96-.62-1.96-1.72,0-.85.45-1.47,1.3-1.62,1.96-.36,3.13-1.87,3.13-3.77v-.85h-2.72c-1,0-1.55-.94-1.55-1.7s.47-1.74,1.55-1.74h9.85c1.09,0,1.55.98,1.55,1.74s-.55,1.7-1.55,1.7h-3.06v.85c0,.26-.02.51-.04.77,3.3.23,4.89,2.17,4.81,6.15h-3.98c.15-1.7-.64-3.04-1.85-3.06-1.28,2.09-3.51,3.26-5.47,3.26ZM237.68,49.44c1.28,0,1.77.77,1.77,1.62s-.51,1.66-1.77,1.66h-13.45c-2.38,0-3.02-.83-3.02-3.11v-2.13c0-1.38,1-2.04,2.19-2.04s2.13.68,2.13,2.04v1.49c0,.4.11.47.51.47h11.64ZM238.87,47.82h-4.26v-12.98c0-1.38,1-2.11,2.13-2.11s2.13.72,2.13,2.11v12.98Z"/>
    <path class="cls-6" d="M243,44.1c-1.89,0-2.47-.7-2.47-2.43v-5.79c0-1.72.57-2.4,2.47-2.4h7.57c1.23,0,1.6.87,1.6,1.66s-.38,1.66-1.6,1.66h-5.53c-.3,0-.43.13-.43.45v3.13c0,.32.13.45.43.45h6.45c1.23,0,1.55.87,1.55,1.64,0,.81-.34,1.64-1.55,1.64h-8.49ZM257.58,49.44c1.28,0,1.77.77,1.77,1.62s-.51,1.66-1.77,1.66h-13.02c-2.38,0-3.02-.83-3.02-3.11v-2.23c0-1.38,1-2.04,2.19-2.04s2.13.68,2.13,2.04v1.57c0,.4.11.49.51.49h11.21ZM259.32,38.06c1.3,0,1.68,1,1.68,1.85s-.4,1.85-1.68,1.85h-.66v6.06h-4.26v-12.98c0-1.38,1-2.11,2.13-2.11s2.13.72,2.13,2.11v3.21h.66Z"/>
  </g>
</svg>